Fly_normalized_Motion_pl09
version=1
nRows=14
nColumns=43
inDegrees=yes
endheader
time		pelvis_tilt		pelvis_list		pelvis_rotation		pelvis_tx		pelvis_ty		pelvis_tz		hip_flexion_r		hip_adduction_r		hip_rotation_r		knee_angle_r		ankle_angle_r		subtalar_angle_r		mtp_angle_r		hip_flexion_l		hip_adduction_l		hip_rotation_l		knee_angle_l		ankle_angle_l		subtalar_angle_l		mtp_angle_l		lumbar_extension		lumbar_bending		lumbar_rotation		neck_flexion		neck_lateral_bending		neck_rotation		arm_flex_r		arm_add_r		arm_rot_r		elbow_flex_r		pro_sup_r		wrist_flex_r		wrist_dev_r		hand_finger_flex_r		arm_flex_l		arm_add_l		arm_rot_l		elbow_flex_l		pro_sup_l		wrist_flex_l		wrist_dev_l		hand_finger_flex_l		
1.092197		-3.040652		11.994609		85.539691		-0.002863		1.744474		1.098486		36.760106		-5.346009		-3.757159		-53.541568		-25.129218		-10.942264		4.880495		26.302281		-0.382622		-13.529140		-43.272051		-24.499386		-14.270287		14.986718		-69.461091		-7.770960		-3.915597		8.906441		-1.014876		-0.812876		57.234913		-41.172223		51.543294		53.048649		94.401712		-25.925675		5.593149		41.180674		55.485078		-34.556739		23.377243		54.847556		128.293456		-17.148412		14.028158		80.041692		
1.096591		-2.953467		12.651706		85.749519		-0.002757		1.735573		1.088652		35.219035		-5.391740		-4.262620		-51.481987		-25.577971		-10.646636		5.065413		24.964458		-0.396248		-13.607849		-41.691310		-24.830265		-13.920286		14.815890		-69.605693		-7.581535		-4.205209		7.836301		-1.211786		-0.572302		53.591055		-42.106212		50.188600		53.472017		94.078272		-24.997462		5.788404		41.397936		52.081980		-35.584346		22.385701		55.165514		128.280197		-17.091906		13.837125		80.480605		
1.100985		-2.907202		13.136561		85.933195		-0.002786		1.726029		1.078906		33.863487		-5.422475		-4.662711		-49.440774		-25.860226		-10.412217		5.173513		23.852717		-0.382369		-13.699125		-40.212953		-25.084769		-13.555839		14.754153		-69.538298		-7.442069		-4.447309		6.758845		-1.282329		-0.392825		50.107763		-43.180422		49.398585		53.837567		93.968739		-24.084217		6.008813		41.501578		48.799409		-36.597142		21.846111		55.373569		128.348410		-17.099130		13.672531		80.839474		
1.105379		-2.841729		13.737732		86.156224		-0.002747		1.716510		1.068968		32.357636		-5.466186		-5.111212		-47.449889		-26.257543		-10.124098		5.278440		22.581569		-0.381751		-13.799466		-38.733190		-25.384344		-13.100029		14.732453		-69.582672		-7.266475		-4.719675		5.646371		-1.425766		-0.169377		46.400886		-44.125779		48.130994		54.183436		93.816645		-23.134919		6.223009		41.505391		45.333057		-37.575618		21.028328		55.679888		128.374364		-17.246592		13.451308		81.199862		
1.109773		-2.829031		14.151839		86.357638		-0.002707		1.706304		1.058965		31.104071		-5.517947		-5.480933		-45.572804		-26.772481		-9.858972		5.250649		21.557091		-0.355954		-13.908569		-37.355036		-25.750085		-12.666823		14.760428		-69.379797		-7.141083		-5.089103		4.431129		-1.584381		0.111293		42.614809		-44.909040		46.895823		54.393365		93.218279		-22.797801		6.200170		41.456962		41.661104		-38.561445		20.050183		56.007169		128.027482		-17.590427		13.302589		81.357573		
1.114167		-2.708929		15.370412		86.704845		-0.002642		1.697468		1.048361		28.786574		-5.641458		-6.247798		-43.658066		-27.192149		-9.598628		5.464116		19.553580		-0.400023		-14.045270		-35.978647		-26.000364		-11.767387		15.308150		-70.034234		-6.852293		-5.391710		3.327115		-1.706882		0.432370		38.038750		-45.569558		43.793304		54.892714		93.307520		-21.314698		6.477889		40.909463		37.661942		-39.197204		18.144432		56.501636		128.216320		-18.293455		12.581908		81.696044		
1.118561		-2.677558		15.985191		86.985154		-0.002587		1.687093		1.038059		27.212138		-5.712349		-6.801888		-41.819213		-27.546311		-9.445724		5.601642		18.285726		-0.384476		-14.107483		-34.688461		-26.222672		-11.130451		15.878559		-70.000311		-6.661329		-5.723759		2.114715		-1.796682		0.716688		33.844831		-46.258572		41.805769		55.158025		92.998864		-20.448181		6.480432		40.444469		33.799635		-39.844618		16.705523		56.755220		128.092344		-18.649203		12.142636		81.976295		
1.122955		-2.650092		16.555351		87.274380		-0.002601		1.676275		1.027649		25.712882		-5.785844		-7.344149		-40.086065		-27.899627		-9.286224		5.762452		17.085593		-0.371067		-14.164251		-33.482794		-26.419141		-10.576891		16.565331		-69.825334		-6.455505		-6.046585		0.639950		-1.981998		0.998973		29.682560		-46.822564		39.876068		55.191679		92.724647		-19.556921		6.511849		39.929416		29.934497		-40.350473		15.310842		56.828327		127.964169		-18.867558		11.779179		82.286485		
1.127348		-2.650022		17.146193		87.589394		-0.002528		1.665108		1.017169		24.205937		-5.874636		-7.891291		-38.459593		-28.134488		-9.124611		5.849134		15.893298		-0.344546		-14.176034		-32.368069		-26.585631		-10.070895		17.085701		-69.657240		-6.260235		-6.450584		-0.787805		-2.121526		1.364891		25.520597		-47.348570		38.060302		55.247782		92.068672		-18.897959		6.406017		39.755616		25.879784		-40.871003		13.749385		57.069012		127.655676		-19.122440		11.478084		82.507407		
1.131742		-2.604787		17.874505		87.906503		-0.002535		1.653921		1.006587		22.508771		-5.937635		-8.515908		-36.860614		-28.297600		-8.874724		6.090946		14.525469		-0.358974		-14.156009		-31.241408		-26.789621		-9.624690		18.073055		-69.603229		-6.023064		-6.772593		-2.191453		-2.235389		1.654421		21.228069		-47.873436		35.900570		55.354694		92.050113		-17.605524		6.535950		39.349112		21.866446		-41.260586		12.246772		57.262221		127.697205		-19.130010		10.935413		82.757991		
1.136136		-2.651246		18.338235		88.144078		-0.002296		1.641785		0.996104		21.290085		-6.002641		-8.891567		-35.566150		-28.490795		-8.663264		6.148917		13.516414		-0.322828		-14.153637		-30.248450		-27.061308		-9.405442		18.516747		-69.210412		-5.948905		-7.183091		-3.824279		-2.361209		2.004208		17.142636		-48.388866		34.394453		55.367609		91.542343		-16.913918		6.459451		39.300943		17.751948		-41.757544		10.965172		57.544895		127.346187		-19.351989		10.603203		82.810139		
1.140530		-2.753708		18.902940		88.466664		-0.002061		1.629872		0.985286		19.807934		-6.114716		-9.320815		-34.098097		-28.558514		-8.481514		6.251235		12.327266		-0.228140		-14.230985		-29.196356		-27.224484		-9.277870		19.165501		-68.911795		-5.871450		-7.666517		-5.395537		-2.448947		2.462321		12.868194		-48.516220		32.147409		55.065784		91.087384		-16.077065		6.449631		39.140270		13.544995		-41.907531		9.109104		57.681761		126.901283		-19.712594		10.121923		82.750913		
1.144924		-2.874743		19.368031		88.719554		-0.001653		1.617421		0.974546		18.536504		-6.196374		-9.633914		-32.822165		-28.654609		-8.316673		6.281230		11.270961		-0.140475		-14.292320		-28.206269		-27.481408		-9.224906		19.652100		-68.490764		-5.888355		-8.139928		-6.996990		-2.517521		2.919080		8.664364		-48.735151		30.210409		54.877831		90.601276		-15.340676		6.409080		39.100233		9.299784		-42.103154		7.459197		57.947845		126.406135		-20.166495		9.619793		82.670836		
1.149318		-2.981784		19.749979		88.924798		-0.001274		1.604563		0.963770		17.410488		-6.248568		-9.898474		-31.643040		-28.765381		-8.179680		6.259293		10.301452		-0.079067		-14.350734		-27.265802		-27.749230		-9.225695		19.999645		-67.935504		-5.935640		-8.575319		-8.746114		-2.588814		3.356996		4.579753		-48.959238		28.530192		54.633045		90.119498		-14.720230		6.415859		39.156953		5.100615		-42.209783		5.989470		58.164520		125.917800		-20.647819		9.179748		82.660007		
